# xmcd
#
# Track frame offsets:
# 150
# 12514
# 26911
# 39211
# 53494
# 72215
# 85200
# 99548
# 112970
# 127391
# 146524
# 160613
#
# Disc length: 2308 seconds
#
#
# Revision: 0
# Processed by: cddbd v1.5.2PL0 Copyright (c) Steve Scherf et al.
# Submitted via: FreeRIP 2.91 
#
DISCID=9a09020c
DTITLE=Highway 40 - The American Line
DYEAR=2011
DGENRE=Country
TTITLE0=If this is love
TTITLE1=Telling me a lie
TTITLE2=My baby loves me
TTITLE3=Jukebox played along
TTITLE4=Shut up and drive
TTITLE5=Stop right where we are
TTITLE6=No one is gonna love you better
TTITLE7=Kiss the children
TTITLE8=I left something turned on at home
TTITLE9=Shotgun rider
TTITLE10=She said
TTITLE11=Hurricane
EXTD=
EXTT0=
EXTT1=
EXTT2=
EXTT3=
EXTT4=
EXTT5=
EXTT6=
EXTT7=
EXTT8=
EXTT9=
EXTT10=
EXTT11=
PLAYORDER=
